<svg xmlns="http://www.w3.org/2000/svg" baseProfile="tiny"  overflow="visible"><path fill="#fff" d="M2.244 17.803h32v32h-32z"/><path d="M12.716 32.193c-.33.36-.8.78-1.08.93-.45.2-.48.2-.9 0-.4-.2-3.36-3.2-3.72-3.42-.4-.24-.48.15-.36 1.83.15 1.62 0 3.93.5 5.13.75 1.77-1.77 2.22-2 .63-.54-3.42-.48-8.3-1.1-11.52-.1-.4 0-.54.27-.75.72-.48 1.47-.18 1.95.78.66 1.3 4.32 4.98 4.95 4.98.4 0 1.92-1.68 2.64-2.9.45-.75 1.47-2.04 2.46-3.06.72-.75 1.17-.8 1.74-.27l.4.4c.06 2.7.12 9.2.3 10.77.2 1.68.2 2.398-.18 2.88-.33.4-.4.4-.93.18-.87-.3-.84-.12-1.1-7.53-.15-3.48-.03-3.33-1.32-1.98-1.3 1.38-1.23 1.5-2.5 2.94zm8.2.33c-.36-.75.42-1.53-.03-2.28-.3-.87-.18-4.17.15-4.5s1.35 0 1.53.48c.06.18.12 1.14.1 2.13-.06 1.77-.06 1.8.36 2.22.45.45.42.45 3.45.06.72-.1 1.7-.18 2.2-.15 1.3.03 1.05-.03 1.05-2.6 0-1.74-.45-2.43.36-2.8.48-.2.5-.18 1.02.33.42.42.42.54.42 1.4 0 3.48.48 8.7 1.32 11.46.15.45-.12 1.14-.57 1.23-.96.2-1.5-.48-1.6-2.1-.12-1.77-.36-1.38-.48-3.36-.1-1.53-.1-1.6-.45-1.68-.6-.15-5.76.1-6.18.3-.24.12-.42.4-.5.72-.18.7-.06 3.33.18 3.84.15.3.15.54-.06 1-.24.57-.27.6-.9.54-1.02-.1-1.17-.568-1.17-3.42.001-1.38-.03-2.52-.18-2.82z"/></svg>
